<?xml version="1.0" encoding="UTF-8" standalone="no"?>
<!-- Created with Inkscape (http://www.inkscape.org/) -->

<svg
   width="1000"
   height="1000"
   viewBox="0 0 264.58333 264.58333"
   version="1.1"
   id="svg1"
   sodipodi:docname="fan-art.svg"
   inkscape:version="1.4.2 (ebf0e940d0, 2025-05-08)"
   xmlns:inkscape="http://www.inkscape.org/namespaces/inkscape"
   xmlns:sodipodi="http://sodipodi.sourceforge.net/DTD/sodipodi-0.dtd"
   xmlns="http://www.w3.org/2000/svg"
   xmlns:svg="http://www.w3.org/2000/svg">
  <sodipodi:namedview
     id="namedview1"
     pagecolor="#ffffff"
     bordercolor="#111111"
     borderopacity="1"
     inkscape:showpageshadow="0"
     inkscape:pageopacity="0"
     inkscape:pagecheckerboard="1"
     inkscape:deskcolor="#d1d1d1"
     inkscape:document-units="px"
     inkscape:zoom="0.54740759"
     inkscape:cx="387.27998"
     inkscape:cy="477.7062"
     inkscape:window-width="1920"
     inkscape:window-height="1050"
     inkscape:window-x="0"
     inkscape:window-y="0"
     inkscape:window-maximized="0"
     inkscape:current-layer="layer1" />
  <defs
     id="defs1">
    <rect
       x="345.26376"
       y="429.2962"
       width="326.99583"
       height="199.12037"
       id="rect26" />
    <rect
       x="381.7996"
       y="464.00526"
       width="274.01885"
       height="149.79697"
       id="rect25" />
    <rect
       x="387.27998"
       y="431.123"
       width="288.63319"
       height="160.75773"
       id="rect23" />
    <rect
       x="334.303"
       y="454.8713"
       width="288.63319"
       height="142.4898"
       id="rect22" />
  </defs>
  <g
     inkscape:label="Layer 1"
     inkscape:groupmode="layer"
     id="layer1">
    <ellipse
       style="fill:#ea4f94;fill-opacity:1;stroke-width:0.351075"
       id="path1"
       cx="130.12584"
       cy="134.51309"
       rx="79.42453"
       ry="79.498352" />
    <path
       style="fill:#ea4f94;fill-opacity:1;stroke-width:0.317499"
       d="M 66.44737,120.64139 C 61.807317,117.16136 43.247105,84.680987 43.247105,84.680987 l 21.460245,-5.800067 6.960079,14.500167 -5.220059,19.720223 -4.640053,6.96008 c 0,0 -27.260308,-33.640383 -27.840314,-22.040253 -0.580008,11.600143 -11.600132,29.580343 -4.060047,38.860443 7.540085,9.28011 -27.8403147,28.42032 11.600133,12.18013 39.440448,-16.24017 26.100292,-51.040573 24.940281,-28.42032 z"
       id="path3" />
    <path
       style="fill:#ea4f94;fill-opacity:1;stroke-width:0.317499"
       d="m 100.08775,70.180821 c 0,-0.773342 0.77335,-2.320024 0,-2.320024 -0.773343,0 -0.187563,3.070277 0,2.320024 0.55153,-2.206098 0.63915,-4.296616 1.16001,-6.38007 0.18758,-0.750254 -0.18756,-1.569774 0,-2.320028 -0.34958,-1.049778 0.93958,-1.078708 1.16002,-1.74002 0.64225,-1.926764 0.41521,-2.432046 1.74002,-4.640052 0.74637,-1.24395 1.94885,-2.575351 2.32002,-4.060044 0.26715,-1.06855 0.23394,-1.861826 0.58001,-2.900033 0.20659,-0.619782 2.30519,-2.60261 2.90003,-2.900035 0.17293,-0.08646 0.4433,0.136709 0.58001,0 0.13671,-0.136709 -0.0865,-0.40708 0,-0.580006 1.20692,-2.413848 -0.0401,0.620049 1.16001,-0.580006 0.19241,-0.192401 0.98878,-1.977558 1.16002,-2.320026 0.348,-0.696008 1.39201,-1.044014 1.74001,-1.740021 0.35586,-0.711714 0.63527,-1.532903 1.16002,-2.320026 0.42656,-0.639839 1.39742,-1.054821 1.74002,-1.740018 0.17577,-0.351519 0.33696,-1.496975 0.58001,-1.74002 0.0472,-0.04712 1.11308,0.04692 1.16002,0 0.1367,-0.136709 -0.13672,-0.443297 0,-0.580006 0.2734,-0.273419 0.81416,0.172923 1.16,0 1.511,-0.755501 3.12377,-0.981876 4.64005,-1.740021 1.14435,-0.572172 6.67492,0 8.1201,0 0.23883,0 1.58649,-0.15353 1.74001,0 0.12712,0.127105 1.57564,2.571255 1.74003,2.900032 0.33121,0.662426 2.74244,2.004842 3.48003,3.480041 0.64122,1.282425 0.35998,0.179988 1.16002,0.580007 2.41385,1.206922 -0.62005,-0.04004 0.58001,1.160011 0.1367,0.136709 0.44329,-0.136709 0.58001,0 0.1367,0.136709 -0.13672,0.443299 0,0.580006 0.1367,0.136709 0.40707,-0.08646 0.58,0 0.71507,0.35754 2.54249,2.184959 2.90003,2.900035 0.0864,0.172924 -0.1367,0.443297 0,0.580006 0.13671,0.13671 0.44329,-0.136709 0.58001,0 0.29,0.290001 0.29,0.87001 0.58001,1.160012 1.20005,1.200054 -0.0469,-1.833842 1.16001,0.580009 0.80006,1.600104 2.09081,3.021618 2.90003,4.64005 0.93462,1.869227 1.11786,3.933583 1.74003,5.800068 0.0864,0.259385 0.51368,0.31475 0.57999,0.580005 0.17401,0.69604 -0.37737,2.725264 0,3.480038 0.48814,0.976249 0.58001,1.127312 0.58001,2.320027"
       id="path4" />
    <path
       style="fill:#ea4f94;fill-opacity:1;stroke-width:0.317499"
       d="m 177.22863,74.240868 c 8.63889,-7.894755 -11.88767,11.887669 5.22006,-5.220059 1.63837,-1.638379 6.19473,-7.157409 8.12009,-8.120091 0.61922,-0.30961 2.03282,0.580005 2.90003,0.580005 0.7377,0 4.17051,-0.469546 4.64005,0 0.13672,0.13671 -0.1367,0.443297 0,0.580007 0.3057,0.305692 0.85433,0.274317 1.16002,0.580006 0.43231,0.432311 0.21318,1.250915 0.58,1.74002 1.78194,2.375926 1.17083,1.214111 1.74003,4.060048 0.16956,0.847832 0.88658,1.499771 1.16,2.320026 0.12117,0.363493 0.23437,3.245672 0,3.480038 -0.1367,0.136709 -0.44329,-0.13671 -0.58001,0 -0.1367,0.136709 0,0.38667 0,0.580006 -0.38666,0.193335 -0.85431,0.274316 -1.16,0.580009 -0.26666,0.266658 -0.93196,1.863899 -1.16002,2.320026 -0.40248,0.804964 0.3312,7.704848 0.58001,8.700098 1.32365,5.2946 4.2675,2.52749 5.22006,3.48004 0.41013,0.41012 0,1.16001 0,1.74002 0,2.159 0.67583,5.5126 0,7.54008 -0.0864,0.25939 -0.49355,0.32062 -0.58001,0.58002 -0.18342,0.550233 0.2594,1.221243 0,1.740013 -0.84573,1.69148 -2.68768,4.82388 -4.64005,5.80007 -0.34585,0.17292 -0.88659,-0.27342 -1.16001,0 -0.29001,0.29 -0.29001,0.87001 -0.58001,1.16001 -0.0464,0.0464 -2.36129,0.40042 -2.90003,0.58 -1.08169,0.36056 -3.48004,4.16928 -3.48004,1.16001"
       id="path5" />
    <path
       style="fill:#ea4f94;fill-opacity:1;stroke-width:0.317499"
       d="m 195.78884,150.80174 c 1.16002,0.77334 2.20603,1.7538 3.48004,2.32002 0.53001,0.23557 1.17128,-0.11376 1.74002,0 3.18773,0.63755 6.97913,3.88259 9.2801,5.80007 7.11773,5.93144 7.92202,17.9944 5.22006,26.1003 -0.43579,1.30737 0.61313,3.41379 0,4.64005 -0.33544,0.67087 -3.84279,2.94853 -4.64005,3.48003 -0.79267,0.52846 -0.83057,1.08112 -1.16001,1.74003 -0.41687,0.83372 -2.11913,2.37942 -2.90003,2.90003 -0.50871,0.33913 -1.30771,0.14769 -1.74003,0.58 -0.13671,0.13672 0.13671,0.44331 0,0.58001 -0.35118,0.35118 -3.05762,0 -3.48003,0 -0.41409,0 -6.91371,0.0463 -6.96009,0 -0.1367,-0.1367 0.13671,-0.44329 0,-0.58001 -2.2636,-2.2636 -0.31149,0.13426 -1.74002,-0.58 -1.41139,-0.7057 -2.40552,-2.4864 -4.06004,-2.90003 -1.58955,-0.39739 -3.0611,-0.6337 -4.64006,-1.16002 -1.73757,-0.57919 -4.98248,-0.0856 -6.96007,-0.58001 -4.01239,-1.00309 -6.89919,-2.32002 -11.02013,-2.32002"
       id="path6" />
    <path
       style="fill:#ea4f94;fill-opacity:1;stroke-width:0.317499"
       d="m 136.62817,205.32236 c -2.36013,5.69831 2.71195,11.9763 0,17.40019 -0.28027,0.56054 -1.75949,2.03976 -2.32003,2.32003 -0.48108,0.24054 -5.96464,0.99544 -6.38007,0.58001 -0.23216,-0.23216 -0.31412,-0.73708 -1.16001,-1.16002 -1.94932,-0.97466 -9.54312,0.65926 -12.18015,0 -1.90549,-0.47637 -4.82263,-2.10519 -5.80005,-4.06004 -0.0865,-0.17293 0.1367,-0.4433 0,-0.58001 -1.20006,-1.20006 0.0469,1.83384 -1.16002,-0.58001 -0.0865,-0.17292 0.1367,-0.4433 0,-0.58 -0.43231,-0.43232 -1.23132,-0.24088 -1.74002,-0.58001 -1.37411,-0.91608 0.41539,-0.82822 -2.32002,-1.74003 -0.55025,-0.1834 -1.18978,0.18342 -1.74003,0 -2.693733,-0.89791 -5.138853,-3.43942 -7.540083,-4.64005 -2.41385,-1.20691 0.62004,0.0401 -0.58001,-1.16 -0.13671,-0.13672 -0.4433,0.1367 -0.58,0 -0.15353,-0.15354 0,-1.5012 0,-1.74003 0,-0.74798 0.27829,-4.33833 0.58,-4.64005 0.13671,-0.1367 0.4433,0.13671 0.58001,0 0.27342,-0.27342 -0.17293,-0.81416 0,-1.16001 0.83645,-1.6729 2.90003,-1.24667 2.90003,-3.48004"
       id="path7" />
    <path
       style="fill:#ea4f94;fill-opacity:1;stroke-width:0.317499"
       d="m 68.187387,171.68198 c -2.490822,0.39248 -13.457306,1.97433 -14.50016,4.06004 -1.09041,2.18082 -1.163603,4.65439 -1.740021,6.96007 -0.637785,2.55114 -1.231872,5.14616 -2.320027,7.5401 0.605882,1.98618 -1.766399,1.79277 -2.320026,2.90002 -0.248018,0.49605 -0.331987,1.24398 -0.580006,1.74003 -0.81213,1.62426 -2.587123,0.8471 -3.480042,1.74002 -0.136708,0.13671 0.13671,0.44329 0,0.58 -0.136708,0.13671 -0.443296,-0.13671 -0.580005,0 -0.83674,0.83675 -2.900033,7.31516 -2.900033,8.70011 0,0.38666 -0.172926,0.81416 0,1.16 0.641214,1.28243 0.359976,0.18 1.160012,0.58001 0.733656,0.36683 1.083819,1.24787 1.740021,1.74002 1.819735,1.3648 3.806745,2.48338 5.800064,3.48004 1.062479,0.53124 5.771893,0 6.960079,0 0.773345,0 1.569774,0.18757 2.320028,0 0.523718,-0.13093 2.531296,-1.37129 2.900031,-1.74001 0.305693,-0.3057 0.274318,-0.85433 0.580009,-1.16002 0.30569,-0.30569 0.854324,-0.27432 1.160012,-0.58001 0.305689,-0.30569 0.320622,-0.81416 0.580006,-1.16001 1.10502,-1.47336 2.852223,-2.27222 4.060047,-3.48004 0.305689,-0.30569 0.274316,-0.85433 0.580005,-1.16002 0.71035,-0.71035 1.702728,-0.81406 2.320028,-1.74002 0.669912,-1.00487 1.968906,-3.58669 2.320026,-4.64005 0.877243,-2.63172 -0.209452,-6.33172 0.580005,-8.7001 0.341284,-1.02385 1.324489,-3.80899 1.740021,-4.64005 0.122276,-0.24455 0.493544,-0.32062 0.580006,-0.58001 0.03901,-0.117 -0.192974,-2.12705 0,-2.32002 0.773344,-0.77335 0.580008,0.96667 0.580008,-0.58001"
       id="path8" />
    <path
       style="fill:#ea4f94;fill-opacity:1;stroke-width:0.317499"
       d="m 42.087094,17.98023 c -0.580005,0.773345 -2.513361,1.740021 -1.74002,2.320027 0.773341,0.580006 2.687925,-2.509605 1.74002,-2.320027 -1.788506,0.357702 -3.008687,2.08435 -4.640053,2.900033 -0.768455,0.384229 -3.876898,0.122113 -4.640053,0.580009 -0.597741,0.358644 -0.713753,1.204506 -1.160011,1.740017 -1.328261,1.593911 -4.291908,3.943979 -5.800068,4.640053 -1.24126,0.572891 -2.837285,-0.03137 -4.060044,0.580006 -0.244554,0.122279 -0.320621,0.493548 -0.580008,0.580009 -0.550241,0.183413 -1.329894,-0.410128 -1.740018,0 -0.577616,0.577612 1.010961,6.065774 1.160011,6.960079 0.202238,1.213415 -0.298247,2.867053 0,4.060044 0.06631,0.265255 0.493544,0.320621 0.580007,0.580006 0.290004,0.870011 -0.290002,2.030025 0,2.900035 0.262477,0.787432 0.919234,1.35691 1.160014,2.320027 0.09378,0.375126 -0.172927,0.814162 0,1.160011 0.244551,0.489106 0.91546,0.67091 1.160012,1.160015 0.172926,0.345846 -0.214487,0.838283 0,1.160011 0.239804,0.359706 0.854322,0.274318 1.160014,0.580007 0.35634,0.356339 0.383178,1.351603 1.160012,1.740021 0.172927,0.08646 0.4433,-0.13671 0.580005,0 0.13671,0.136708 -0.136705,0.443296 0,0.580005 0.406017,0.406013 3.832696,1.095054 4.060048,1.160015 1.838328,0.525234 5.913996,2.504386 7.540085,3.480038 1.015861,0.609518 4.597365,3.974668 5.220058,5.220059 0.400019,0.800037 -0.702417,0.518801 0.58001,1.160015 0.520893,0.260448 4.052902,0.873578 4.640049,0.580006 2.033207,-1.016604 2.217779,-2.377028 3.480042,-4.060048 0.49215,-0.656202 1.480632,-0.96186 1.740021,-1.740017 0.542206,-1.626632 0.742336,-3.549367 1.160011,-5.220062 0.250428,-1.001712 0.832746,-1.91823 1.160011,-2.900032 0.223688,-0.671059 -0.311629,-1.696765 0,-2.320027 0.337817,-0.675634 0.822198,-1.064383 1.160015,-1.740017 0.281312,-0.562623 0.09724,-8.311169 0,-8.700101 0.985761,-1.569936 -0.886596,-1.49977 -1.160015,-2.320026 -0.122275,-0.366826 0.09378,-0.784885 0,-1.160011 -0.253586,-1.014353 -1.710604,-4.305929 -2.320022,-5.220062 -0.58001,-0.870007 -1.160015,-0.580006 -1.740021,-1.740017 -0.172927,-0.34585 0.122275,-0.793186 0,-1.160015 -0.08646,-0.259385 -0.45773,-0.335455 -0.580007,-0.580007 -0.172926,-0.345849 0.172924,-0.814165 0,-1.160011 -0.45224,-0.904481 -1.173838,-3.493865 -1.74002,-4.060047 -0.136709,-0.136709 -0.443297,0.13671 -0.580006,0 -0.136708,-0.136709 0.08646,-0.407082 0,-0.580006 -0.296722,-0.593442 -2.329345,-2.391362 -2.900035,-2.320026 -1.396635,0.174577 -2.991386,2.076002 -4.060044,1.160011 0.476237,-10.3382164 1.270987,-3.424551 -1.160015,-4.640053 -0.976245,-0.48812 -1.127308,-0.580006 -2.320027,-0.580006"
       id="path9" />
    <path
       style="fill:#ea4f94;fill-opacity:1;stroke-width:0.317499"
       d="m 191.14879,37.120447 c 0.76718,-5.431862 3.132,-11.600131 9.2801,-11.600131 1.64801,0 6.37458,-0.582752 7.54008,0 0.35987,0.179933 4.97827,4.31766 5.22006,4.640052 0.25939,0.34585 0.27432,0.854323 0.58001,1.160015 2.03454,2.034538 4.75456,3.382118 6.96008,5.220059 0.63014,0.525114 1.07255,1.263257 1.74002,1.74002 0.76389,0.545637 5.40592,2.691743 5.80006,3.480039 1.06601,2.132006 -1.18753,4.722615 -1.74002,6.380073 -0.44386,1.331586 -0.28272,2.744118 -1.16,4.060044 -0.2502,0.375294 -3.91127,1.955632 -4.64006,2.320026 -0.24997,0.124985 -9.45319,0.203464 -9.86011,0 -0.48911,-0.24455 -0.70502,-0.856681 -1.16001,-1.160011 -3.46766,-2.311769 -7.05602,-4.54286 -10.44012,-6.960079 -2.38964,-1.70688 -5.07873,-2.249361 -7.54008,-3.480042 -0.48911,-0.244551 -0.67091,-0.91546 -1.16002,-1.160011 -0.17292,-0.08646 -0.4433,0.136708 -0.58001,0 -1.12733,-1.127332 0.72203,-3.107109 1.16002,-4.640054 z"
       id="path10" />
    <path
       style="fill:#ea4f94;fill-opacity:1;stroke-width:0.317499"
       d="m 200.42889,110.78128 c 0,0.77334 -0.77334,2.32003 0,2.32003 0.77334,0 -0.75493,-2.48779 0,-2.32003 2.04144,0.45366 3.37878,2.48859 5.22006,3.48004 2.19069,1.17961 5.30541,1.2027 7.54008,2.32003 0.48911,0.24455 0.70503,0.85668 1.16002,1.16002 1.90916,1.27276 4.48788,4.18351 5.22006,6.38006 0.12228,0.36683 -0.12228,0.79319 0,1.16002 0.19253,0.57759 0.96747,1.16242 1.16001,1.74002 0.12227,0.36683 -0.12228,0.79319 0,1.16002 0.22208,0.66624 1.38472,0.8047 1.74002,1.16 2.26362,2.26362 -0.13426,0.3115 0.58,1.74002 0.60399,1.20797 1.6877,1.05536 2.32004,2.32002 1.21922,2.43846 -2.50299,4.44154 -4.06005,5.22006 -0.46401,0.23201 -1.27602,-0.23199 -1.74002,0 -0.24455,0.12228 -0.32063,0.49355 -0.58001,0.58001 -1.52072,0.50692 -3.27618,-0.23904 -4.64005,-0.58001 -0.41788,-0.1044 -4.56567,-0.50562 -4.64005,-0.57999 -0.13672,-0.13672 0.1367,-0.44331 0,-0.58001 -0.19298,-0.19297 -2.20298,0.039 -2.32004,0 -1.51141,-0.50381 -3.61857,-2.32003 -5.22006,-2.32003 -0.31838,0 -1.59936,-1.17742 -1.74001,-1.74003 -0.14067,-0.56268 0.11376,-1.17127 0,-1.74001 -0.27667,-1.38335 -1.1886,-2.19341 -1.74002,-3.48003 -0.31401,-0.7327 -0.22351,-1.60704 -0.58001,-2.32004 -0.64463,-1.28925 -1.99986,-1.99986 -2.90003,-2.90002 -0.81396,-0.81396 -0.40525,-1.74003 -1.74002,-1.74003"
       id="path11" />
    <path
       style="fill:#ea4f94;fill-opacity:1;stroke-width:0.317499"
       d="m 156.9284,205.90237 c 10.1993,1.34763 13.6714,0.66247 18.56021,10.4401 1.62089,3.2418 2.32002,6.23784 2.32002,9.86012 0,0.80944 -9.5e-4,6.38089 -0.58,6.96008 -0.13671,0.1367 -0.40709,-0.0864 -0.58001,0 -0.69601,0.348 -1.04401,1.39201 -1.74002,1.74002 -1.4177,0.70886 -7.79476,4.22272 -9.2801,3.48004 -2.76143,-1.38071 -5.46657,-3.04794 -8.12009,-4.64005 -1.28902,-0.77341 -3.8094,-1.65405 -4.64005,-2.90004 -0.7144,-1.07158 -1.76025,-2.36045 -2.32004,-3.48004 -0.27342,-0.54683 -0.21318,-1.25091 -0.58,-1.74001 -0.25938,-0.34585 -0.93759,-0.2093 -1.16002,-0.58001 -0.41012,-0.68354 -0.28394,-1.57989 -0.58,-2.32003 -0.0686,-0.17143 -2.12841,-2.70841 -2.32003,-2.90003 -1.20006,-1.20006 0.0469,1.83384 -1.16001,-0.58001 -0.17292,-0.34585 0.27342,-0.88659 0,-1.16001 -0.13671,-0.13671 -0.4433,0.13671 -0.58001,0 -0.0776,-0.0776 0,-6.80819 0,-7.54008"
       id="path12" />
    <path
       style="fill:#ea4f94;fill-opacity:1;stroke-width:0.317499"
       d="m 84.427577,220.98254 c -0.77335,0.19333 -2.51337,-0.19335 -2.32003,0.57999 0.19333,0.77334 3.09337,-0.77334 2.32003,-0.57999 -4.82762,1.2069 -3.04577,1.16 -5.22006,1.16 -2.624362,0 -2.33408,1.1811 -3.480042,2.90004 -0.376078,0.56411 -1.528146,1.1044 -1.74002,1.74001 -0.122275,0.36683 0.09378,0.7849 0,1.16002 -0.700205,2.80082 -0.27563,-0.0287 -1.160015,1.74002 -0.175119,0.35025 -0.216078,9.21188 0,9.86012 0.221605,0.66481 1.407672,3.72769 1.740021,4.06004 0.290005,0.29 0.87001,0.29 1.160014,0.58001 0.136707,0.1367 -0.136708,0.44329 0,0.58001 0.331839,0.33183 2.458322,0 2.900032,0 1.91985,0 3.63875,0.21064 5.22006,-0.58001 1.48032,-0.74016 2.88654,-2.29978 4.06004,-4.06005 0.89749,-1.34623 0.78812,-3.15246 1.16002,-4.64005 -0.34959,-1.04978 0.93958,-1.07871 1.16001,-1.74002 0.18342,-0.55025 -0.25938,-1.22125 0,-1.74003 0.24455,-0.48909 0.91546,-0.6709 1.16001,-1.16001 0.38145,-0.76288 0.30016,-1.48048 0.58001,-2.32002 0.88394,-2.65183 0.4605,2.45705 1.16002,-1.74003 0.12714,-0.76281 -0.15167,-1.56169 0,-2.32002 0.20738,-1.03693 1.16001,-1.51048 1.16001,-2.90004 0,-2.18184 2.04358,-2.92713 2.90003,-4.64005 0.37628,-0.75255 0.76824,-1.53647 1.16002,-2.32002 0.17292,-0.34585 -0.17294,-0.81416 0,-1.16001 0.24454,-0.48911 0.91545,-0.67091 1.16001,-1.16002 0.17509,-0.3502 -0.26811,-1.4719 0,-1.74001 0.13671,-0.13672 0.44329,0.1367 0.580003,0 0.30171,-0.30172 0.58001,-3.89208 0.58001,-4.64005 0,-0.49042 0.3018,-2.01825 0,-2.32004 -0.41013,-0.41012 -3.415803,0 -4.060053,0 -2.58636,0 -3.77401,0.14699 -5.80006,1.16002 -0.60851,0.30425 -2.4371,-0.46294 -2.90004,0 -0.1367,0.1367 0.0865,0.40708 0,0.58001 -0.32609,0.6522 -1.511,1.05297 -1.74001,1.74001 -0.12228,0.36683 0.0938,0.7849 0,1.16002 -0.0983,0.39324 -2.1067,4.2134 -2.32003,4.64005 -0.23964,0.47928 -1.90392,3.56834 -1.74002,4.06004 0.49291,1.47874 3.01711,2.66589 2.32003,4.06006 -4.8319,9.66378 -4.64006,-2.10245 -4.64006,1.16"
       id="path13" />
    <path
       style="fill:#ea4f94;fill-opacity:1;stroke-width:0.317499"
       d="m 209.12899,233.74268 c -3.48559,-8.26236 -2.51991,-12.61024 4.64005,-17.9802 1.64306,-1.23231 0.60498,-0.15125 2.32003,-0.58001 1.11881,-0.27971 3.91077,-1.23466 5.22006,-0.58001 2.4006,1.2003 7.53744,9.85485 8.7001,12.18013 1.11236,2.22474 0.78857,5.16147 1.74001,7.5401 0.7239,1.80973 4.64821,5.78373 3.48005,8.12008 -1.26057,2.52113 -4.01787,6.5453 -6.38008,8.12009 -0.75878,0.50586 -4.86225,0 -5.80007,0 -0.77187,0 -3.55278,-0.24182 -4.06004,-0.57999 -0.3597,-0.23981 -0.27432,-0.85433 -0.58001,-1.16002 -2.26361,-2.26361 -0.31148,0.13426 -1.74001,-0.58001 -1.33997,-0.66998 -2.2271,-2.14826 -3.48005,-2.90003 -1.44801,-0.86881 -3.22755,-1.37836 -4.64005,-2.32003 -0.75517,-0.50345 -1.52011,-1.34006 -2.32002,-1.74002 -0.17293,-0.0864 -0.4433,0.13671 -0.58001,0 -0.27342,-0.27342 0.17292,-0.81417 0,-1.16001 -1.23686,-2.47374 -1.16001,-5.11489 -1.16001,-8.1201"
       id="path14" />
    <path
       style="fill:#ea4f94;fill-opacity:1;stroke-width:0.317499"
       d="m 53.107217,154.28177 c -5.415933,1.30474 -10.791824,2.97039 -16.240182,4.06005 -0.379161,0.0758 -0.793184,-0.12227 -1.160014,0 -2.560272,0.85343 2.10726,0.58001 -1.740018,0.58001 -3.804478,0 -10.510266,0.0234 -13.920159,1.16001 -0.259387,0.0864 -0.320621,0.49355 -0.580005,0.58001 -0.366831,0.12227 -0.793185,-0.12228 -1.160015,0 -0.518773,0.17292 -0.773341,0.77334 -1.160011,1.16002 -0.647694,0.64768 -1.913789,1.50754 -2.320028,2.32002 -0.11472,0.22945 -0.866841,3.77322 -0.580009,4.06004 0.13671,0.13672 0.443301,-0.1367 0.580009,0 0.35634,0.35634 0.383178,1.35161 1.160013,1.74002 2.460672,1.23034 6.900389,0.79324 9.280105,0 0.518773,-0.17292 0.670909,-0.91545 1.160011,-1.16001 0.34585,-0.17292 0.814165,0.17293 1.160015,0 0.875183,-0.43759 1.237968,-0.79932 2.320027,-1.16002 0.696007,-0.23199 1.624019,0.23201 2.320026,0 0.259385,-0.0864 0.335455,-0.45773 0.580006,-0.57999 1.117997,-0.559 2.941593,-0.0208 4.060047,-0.58001 0.837406,-0.41871 1.482617,-0.74131 2.320026,-1.16002 0.518774,-0.25938 1.189778,0.18341 1.740018,0 0.259388,-0.0865 0.320621,-0.49355 0.58001,-0.58001 0.366826,-0.12228 0.793184,0.12228 1.160011,0 0.259388,-0.0865 0.320621,-0.49354 0.580005,-0.58 0.366831,-0.12227 0.793186,0.12228 1.160015,0 1.132558,-0.37752 2.398599,-1.1993 3.480039,-1.74002 0.464007,-0.232 1.276012,0.232 1.74002,0 1.156056,-0.57802 2.323982,-0.58198 3.480038,-1.16001 0.732269,-0.36613 2.923239,0.5568 3.480041,0 0.13671,-0.13672 0,-0.38668 0,-0.58001"
       id="path15" />
    <path
       style="fill:#ea4f94;fill-opacity:1;stroke-width:0.317499"
       d="m 165.6285,70.76083 c -0.74864,-2.724255 -0.58001,-5.34462 -0.58001,-8.120094 0,-4.922146 -0.54287,-10.194379 0,-15.080171 0.0881,-0.792266 0.48114,-1.529039 0.58001,-2.320026 0.3763,-3.010417 -0.59373,-6.311455 0,-9.280103 0.0848,-0.423917 0.47515,-0.74061 0.58,-1.160015 0.50931,-2.037232 -0.0875,-4.377674 0.58001,-6.380073 0.28869,-0.866041 1.16002,-1.298083 1.16002,-2.320024 0,-2.201275 8.37555,-6.124607 9.8601,-4.640052 0.3057,0.305688 0.27432,0.854322 0.58001,1.160011 2.29342,2.293427 0.3354,-1.803092 1.16001,2.320026 0.19645,0.98227 0.91668,1.926702 1.16002,2.900033 0.88832,3.553276 -1.43913,10.976556 -2.32003,14.500164 -0.2097,0.838807 -0.99045,1.472194 -1.16001,2.320027 -0.15167,0.758324 0.15166,1.561703 0,2.320026 -0.13671,0.683546 -0.99095,1.063752 -1.16001,1.740021 -0.18532,0.741264 -0.89634,4.692704 -1.16002,5.220059 -0.4848,0.969601 -1.40064,1.881912 -1.74002,2.900032 -0.12227,0.36683 0.12228,0.793185 0,1.160015 -0.17292,0.518772 -0.91546,0.670906 -1.16001,1.160011 -0.56565,1.131314 -1.19276,2.385512 -1.74002,3.480039 -0.41794,0.835881 -0.33117,3.811203 -0.58001,4.060046 -0.1367,0.13671 -0.38666,0 -0.58001,0 -1.16,1.353351 -2.32002,2.706697 -3.48003,4.060048 z"
       id="path16" />
    <path
       style="fill:#ea4f94;fill-opacity:1;stroke-width:0.317499"
       d="m 195.78884,107.30125 c 6.94602,0.36829 13.60405,-1.992 20.30023,-3.48004 2.70222,-0.6005 5.45161,-1.0039 8.12009,-1.74002 2.94683,-0.81292 5.716,-2.236903 8.7001,-2.900043 12.21667,-1.01805 2.05015,0.38131 12.18014,-2.32002 1.09709,-0.29256 8.89936,-1.6736 10.44012,-1.16002 3.50257,1.16753 7.24582,12.041533 5.22005,15.080173 -2.40901,3.61353 -10.45432,2.90241 -13.92016,3.48004 -0.78629,0.13105 -1.53372,0.44895 -2.32002,0.58001 -1.49981,0.24997 -3.15039,-0.29793 -4.64005,0 -0.42392,0.0848 -0.7361,0.49522 -1.16002,0.58 -1.65823,0.33166 -3.58149,-0.40964 -5.22006,0 -3.92604,0.98152 -8.10769,0.58001 -12.18013,0.58001 -3.1754,0 -8.67339,0.73169 -11.60013,0 -0.26526,-0.0664 -0.31476,-0.51369 -0.58001,-0.58001 -0.75025,-0.18756 -1.54668,0 -2.32002,0 -0.95579,0 -10.27074,0.16938 -10.44012,0 -0.226,-0.22599 0,-1.96608 0,-2.32002"
       id="path17" />
    <path
       style="fill:#ea4f94;fill-opacity:1;stroke-width:0.317499"
       d="m 199.84888,146.16169 c 0.77334,0.58 1.74003,2.51336 2.32002,1.74002 0.58001,-0.77335 -2.85624,-2.54435 -2.32002,-1.74002 12.36682,18.55023 0.50897,1.10318 6.38008,5.80006 0.96667,0.77334 1.36901,2.10752 2.32002,2.90003 4.13624,3.44687 0.85655,0.27654 3.48004,2.90003 2.07104,2.07106 5.08426,3.58285 7.54009,5.22006 1.1154,0.7436 1.78464,2.15644 2.90003,2.90004 0.90086,0.60056 2.36343,1.24684 2.90004,2.32002 0.0864,0.17293 0,0.38668 0,0.58001 0.19333,0.38667 0.3402,0.80031 0.58,1.16001 0.47316,0.70974 1.16001,1.42283 1.16001,2.32004 0,1.54668 -0.19333,-0.19335 0.58001,0.57999 0.48826,0.48827 -0.0216,3.20083 -0.58001,3.48005 -0.0217,0.0108 -2.75784,1.11262 -2.90003,1.16 -0.9967,0.33225 -9.36118,0.35966 -10.44012,0 -0.3915,-0.13048 -6.71858,-4.89806 -6.96007,-5.22004 -0.41826,-0.55767 -0.61569,-1.30457 -1.16002,-1.74003 -0.47741,-0.38192 -1.19318,-0.30659 -1.74002,-0.58001 -1.35749,-0.67874 -2.22042,-2.64028 -3.48004,-3.48003 -0.16087,-0.10728 -0.4433,0.1367 -0.58001,0 -0.65734,-0.65735 -0.77872,-1.83939 -1.74002,-2.32003 -0.17292,-0.0864 -0.44329,0.13671 -0.58001,0 -0.1367,-0.13671 0.0865,-0.40708 0,-0.58001 -0.44238,-0.88477 -1.30749,-1.455 -1.74001,-2.32002 -0.44974,-0.89947 0.1843,-1.17358 -0.58001,-2.32003 -0.76968,-1.15452 -0.83213,-1.5885 -1.16001,-2.90003 0.34958,-1.04979 -0.93958,-1.07872 -1.16002,-1.74003 -0.039,-0.117 0.19298,-2.12704 0,-2.32002 -0.1367,-0.13671 -0.38666,0 -0.58,0"
       id="path18" />
    <path
       style="fill:#ea4f94;fill-opacity:1;stroke-width:0.317499"
       d="m 136.62817,214.60246 c -4.03743,16.14972 0.14475,-2.17332 -1.16002,6.96007 -0.25339,1.77378 -1.15515,2.30546 -1.74001,4.06006 -1.06207,3.1862 -1.24518,6.63556 -2.32003,9.86011 -0.32923,0.98771 -0.88607,1.89557 -1.16002,2.90003 -0.30942,1.13458 -0.14324,2.38813 -0.58001,3.48004 -0.359,0.89754 -1.3077,1.4554 -1.74001,2.32003 -0.82049,1.64096 -1.37383,4.54909 -1.74002,6.38006 -0.35207,1.76033 0,3.99534 0,5.80007 0,0.19333 -0.13671,0.4433 0,0.58001 0.26666,0.26666 1.8639,0.93195 2.32003,1.16001 0.3423,0.17115 1.35018,0 1.74001,0 3.6487,0 3.91671,-4.35337 5.22006,-6.96008 2.5332,-5.0664 -1.01231,2.45695 0.58001,-2.32002 0.0864,-0.25939 0.49355,-0.32062 0.58001,-0.58001 0.18342,-0.55025 -0.21541,-1.2015 0,-1.74002 1.5119,-3.77976 0.50983,-1.96913 1.16001,-5.22006 0.0848,-0.42391 0.49522,-0.73609 0.58001,-1.16001 0.52051,-2.60259 -0.52052,-5.5175 0,-8.1201 0.0848,-0.42391 0.47515,-0.7406 0.58,-1.16001 0.27295,-1.09177 -0.27294,-2.38825 0,-3.48004 0.10488,-0.4194 0.47516,-0.7406 0.58001,-1.16001 0.22746,-0.90982 -0.22745,-1.99022 0,-2.90003 0.48002,-1.92006 1.34066,-3.80329 1.74002,-5.80007 0.23329,-1.16644 0.4992,-4.01964 1.74002,-4.64005 0.17292,-0.0865 0.4433,0.1367 0.58001,0 0.77334,-0.77334 -0.96668,-0.58001 0.58,-0.58001"
       id="path19" />
    <path
       style="fill:#ea4f94;fill-opacity:1;stroke-width:0.317499"
       d="m 94.867687,70.76083 c 0.0348,-4.161286 -3.59181,0.468227 -4.64005,-0.580009 -0.13671,-0.136707 0.13671,-0.443297 0,-0.580006 -0.13671,-0.136709 -0.38667,0 -0.58001,0 -0.38667,-0.386671 -0.8184,-0.733006 -1.16001,-1.160011 -1.57385,-1.967314 -2.60521,-4.343302 -4.06004,-6.380074 -1.18026,-1.652363 -1.14113,-0.523341 -1.74002,-2.320027 -0.37167,-1.115009 -0.60144,-2.9429 -1.16002,-4.060044 -2.2042,-4.408398 -4.03875,-8.614933 -5.220055,-13.340153 -0.643415,-2.573654 0.06974,-8.490877 -0.580007,-10.440117 -0.08646,-0.259388 -0.457732,-0.335454 -0.580008,-0.580006 -0.231979,-0.46396 -0.346717,-5.453351 0,-5.800067 0.136709,-0.13671 0.4433,0.136709 0.580008,0 0.38275,-0.382753 0.819395,-1.859712 1.740022,-2.320027 2.98007,-1.490034 5.5635,2.964164 6.96008,4.640053 2.37922,2.855068 6.34069,6.261945 7.54008,9.860112 0.65102,1.953051 0.75956,4.377816 1.16002,6.380073 0.77176,3.858841 0.27356,-0.430498 1.74001,3.480038 0.78205,2.085461 0.62017,4.800683 1.16001,6.960079 0.46167,1.846625 0.85289,3.377311 1.16002,5.220059 -0.98576,1.569936 0.8866,1.499776 1.16002,2.320027 0.12228,0.366829 -0.12228,0.793185 0,1.160015 0.24322,0.729684 0.87475,1.464252 1.16001,2.320026 0.47337,1.420121 0.11664,3.249826 0.580003,4.64005 0.71672,2.150148 0.58001,-0.707 0.58001,1.160014 0,0.353946 0.22599,2.094034 0,2.320026 -0.49292,0.49291 -1.247103,0.667103 -1.740023,1.160013"
       id="path20" />
    <path
       style="fill:#ea4f94;fill-opacity:1;stroke-width:0.317499"
       d="m 41.507089,103.82121 c -0.773345,-0.38668 -1.933356,-1.93336 -2.320028,-1.16002 -0.386673,0.77334 3.122807,1.48113 2.320028,1.16002 -2.418281,-0.96732 -4.903401,-1.8717 -6.96008,-2.90004 -0.620373,-0.31019 -20.859315,-1.166993 -22.620255,-0.58001 -0.259389,0.0865 -0.320622,0.49355 -0.580009,0.58001 -0.366827,0.12228 -0.814163,-0.17292 -1.160013,0 -0.172926,0.0865 0.13671,0.4433 0,0.58001 -0.2734167,0.27342 -0.8141647,-0.17292 -1.1600147,0 -0.489102,0.24456 -0.670905,0.91545 -1.160011,1.16001 -0.345849,0.17292 -0.886596,-0.27342 -1.160015,0 -0.136708,0.13671 0.08646,0.40708 0,0.58001 -0.244551,0.48911 -0.987088,0.64123 -1.160011,1.16001 -0.122276,0.36684 0.172923,0.81416 0,1.16001 -0.08646,0.17293 -0.443297,-0.1367 -0.580005,0 -0.305693,0.30569 -0.386672,0.77334 -0.58001,1.16002 -0.681478,1.36296 0.36851,6.74858 1.160015,7.54008 0.136709,0.13671 0.407082,-0.0865 0.580006,0 0.489105,0.24456 0.670909,0.91547 1.160015,1.16001 0.518773,0.2594 1.189777,-0.1834 1.740016,0 0.259389,0.0865 0.335456,0.45773 0.58001,0.58001 0.7331767,0.36659 5.5217977,0.43697 6.3800707,0.58001 4.708254,0.7847 12.752199,1.54933 17.400197,0 0.875368,-0.29179 2.582839,0 3.48004,0 2.270668,0 7.230024,-0.68336 9.280103,0 0.259387,0.0865 0.320621,0.49355 0.580009,0.58001 1.039898,0.34663 2.934748,0 4.060044,0"
       id="path21" />
    <path
       style="fill:#ea4f94;fill-opacity:1;stroke-width:0.317499"
       d="m 47.887159,22.620283 c 1.526496,-1.07293 0.748903,-3.318564 1.74002,-4.640053 0.259388,-0.345849 0.900628,-0.234156 1.160012,-0.580005 0.36683,-0.489106 0.352946,-1.172366 0.580008,-1.740021 0.519977,-1.299943 1.33906,-1.919065 2.320028,-2.900033 1.517424,-1.517427 3.362172,-1.785302 5.220058,-2.9000314 0.367036,-0.220225 2.305589,-1.174449 2.320026,-1.160015 0.273416,0.273418 -0.172926,0.814165 0,1.160015 0.122276,0.2445504 0.457731,0.3354544 0.580006,0.5800054 0.241453,0.482908 -0.367906,1.952121 0,2.320026 0.136709,0.13671 0.443297,-0.136708 0.580006,0 0.645151,0.645152 -0.364391,2.468805 -0.580006,2.900033 -0.406908,0.813816 -0.155597,2.051215 -0.580006,2.900032 -0.421192,0.842385 -1.822167,0.662156 -2.320026,1.160015 -0.13671,0.13671 0.136709,0.443296 0,0.580006 -0.193335,0.193335 -1.546686,0.38667 -1.740021,0.580006 -0.136709,0.136709 0.13671,0.443299 0,0.580009 -1.200054,1.200052 0.04691,-1.833842 -1.160015,0.580006 -0.08646,0.172922 0.13671,0.443297 0,0.580005 -0.29,0.290004 -0.870007,0.290004 -1.160011,0.580006 -0.136709,0.136709 0.08646,0.407083 0,0.580009 -0.370392,0.740785 -1.162609,0.5826 -1.740021,1.160011 -0.386671,0.386672 -0.696296,1.449836 -1.160011,1.160015 -1.511529,-0.944705 -2.799655,-4.740433 -4.060047,-3.480041 -4.804001,4.804001 5.551442,4.640054 2.320026,4.640054"
       id="path22" />
    <text
       xml:space="preserve"
       transform="matrix(0.3175,0,0,0.3175,-28.673708,-24.360249)"
       id="text22"
       style="text-align:start;writing-mode:lr-tb;direction:ltr;white-space:pre;shape-inside:url(#rect22);fill:#ea4f94;fill-opacity:1"><tspan
         x="334.30273"
         y="465.68015"
         id="tspan1">FA</tspan></text>
    <text
       xml:space="preserve"
       transform="matrix(0.3175,0,0,0.3175,-28.673708,-24.360249)"
       id="text23"
       style="text-align:start;writing-mode:lr-tb;direction:ltr;white-space:pre;shape-inside:url(#rect23);fill:#ea4f94;fill-opacity:1" />
    <text
       xml:space="preserve"
       transform="matrix(0.3175,0,0,0.3175,-28.673708,-24.360249)"
       id="text25"
       style="text-align:start;writing-mode:lr-tb;direction:ltr;white-space:pre;shape-inside:url(#rect25);fill:#ea4f94;fill-opacity:1" />
    <text
       xml:space="preserve"
       transform="matrix(0.3175,0,0,0.3175,-28.673708,-24.360249)"
       id="text26"
       style="font-size:192px;text-align:start;writing-mode:lr-tb;direction:ltr;white-space:pre;shape-inside:url(#rect26);fill:#ea4f94;fill-opacity:1"><tspan
         x="345.26367"
         y="801.36086"
         id="tspan3"><tspan
           dx="0 41.489605"
           style="font-size:74.6667px;fill:#000000"
           id="tspan2">FA</tspan></tspan></text>
    <text
       xml:space="preserve"
       style="font-size:60.96px;text-align:start;writing-mode:lr-tb;direction:ltr;text-anchor:start;fill:#000000;fill-opacity:1;stroke-width:0.317499"
       x="93.325668"
       y="152.517"
       id="text27"><tspan
         sodipodi:role="line"
         id="tspan27"
         style="font-size:60.96px;stroke-width:0.317499"
         x="93.325668"
         y="152.517">FA</tspan></text>
  </g>
</svg>
