<?xml version="1.0" encoding="UTF-8" standalone="no"?>
<svg
   viewBox="-600 -600 1000 1000"
   version="1.1"
   id="svg3"
   sodipodi:docname="base.svg"
   width="1000"
   height="1000"
   inkscape:version="1.4.2 (ebf0e940d0, 2025-05-08)"
   xmlns:inkscape="http://www.inkscape.org/namespaces/inkscape"
   xmlns:sodipodi="http://sodipodi.sourceforge.net/DTD/sodipodi-0.dtd"
   xmlns="http://www.w3.org/2000/svg"
   xmlns:svg="http://www.w3.org/2000/svg">
  <sodipodi:namedview
     id="namedview3"
     pagecolor="#ffffff"
     bordercolor="#000000"
     borderopacity="0.25"
     inkscape:showpageshadow="2"
     inkscape:pageopacity="0.0"
     inkscape:pagecheckerboard="0"
     inkscape:deskcolor="#d1d1d1"
     inkscape:zoom="0.57933333"
     inkscape:cx="749.13694"
     inkscape:cy="447.92865"
     inkscape:window-width="1920"
     inkscape:window-height="1080"
     inkscape:window-x="0"
     inkscape:window-y="0"
     inkscape:window-maximized="0"
     inkscape:current-layer="svg3" />
  <defs
     id="defs1">
    <style
       id="style1">
      .a {
        fill: #3a70ac;
      }
      .b {
        fill: #fff;
      }
    </style>
  </defs>
  <ellipse
     class="a"
     cx="-99.790009"
     cy="-100.29001"
     id="circle1"
     rx="300.20999"
     ry="299.70999"
     style="stroke-width:1.00083" />
  <path
     class="b"
     d="m 57.41483,-272.924 c 6.71819,9.238 6.32655,15.525 6.38464,26.891 0.074,6.205 0.074,6.205 0.14919,12.537 0.001,4.492 0.001,8.98502 0.002,13.61202 0.0482,4.662 0.0971,9.323 0.14919,14.126 0.12612,12.455 0.20941,24.908 0.26543,37.365 0.24236,90.462 0.24236,90.462 7.51654,180.555 1.34922,12.408 2.17361,24.177 1.56459,36.636 -3.71019,3.706 -3.71019,3.706 -11.37994,4.069 -3.05812,-0.044 -6.11621,-0.087 -9.26645,-0.13 -4.60067,-0.051 -4.60067,-0.051 -9.29447,-0.102 -3.55291,-0.064 -3.55291,-0.064 -7.17697,-0.131 -1.25407,-14.897 -2.48412,-29.799 -3.71118,-44.7 -0.35557,-4.201 -0.71018,-8.402 -1.07378,-12.731 -0.33455,-4.097 -0.67011,-8.194 -1.01468,-12.414 -0.31253,-3.745 -0.62205,-7.49 -0.94258,-11.348 -0.73924,-12.445 -0.68313,-24.926 -0.68313,-37.391 -28.17292,0 -56.34685,0 -85.3742,0 0,40.357 0,80.711 0,122.29 -10.97428,5.479 -21.31248,3.929 -33.40564,3.706 -0.87145,-60.893 -0.31153,-121.639 2.56828,-182.477 0.29539,-6.301 0.57496,-12.602 0.8414,-18.905 3.71819,-86.57802 3.71819,-86.57802 29.99596,-117.31302 25.38427,-16.126 86.55916,-33.344 113.88567,-14.145 z"
     fill="#F9FAFC"
     id="path1"
     style="stroke-width:1.00083" />
  <path
     class="b"
     d="m -249.25693,-273.834 c 5.39598,0.115 5.39598,0.115 10.90216,0.232 12.61801,20.599 21.4948,41.559 29.92684,64.15602 1.2571,3.284 2.51218,6.569 3.80734,9.951 7.29916,19.326 13.77394,38.721 19.47944,58.573 2.34692,7.751 5.07346,15.194 8.03339,22.73 6.73722,18.217 11.58729,37.085 16.70281,55.817 1.22705,-69.705 2.45109,-139.41 3.71419,-211.22702 22.27009,0 22.27009,0 33.40564,7.411 1.32421,11.168 1.32421,11.168 1.21803,25.825 -0.004,2.698 -0.01,5.395 -0.0159,8.174 -0.0361,9.05002 -0.15327,18.09702 -0.27346,27.14702 -0.0441,6.339 -0.0862,12.681 -0.1222,19.021 -0.61703,83.223 -2.59131,166.443 -4.51752,249.645 -10.38931,5.186 -18.20733,4.643 -29.69446,3.705 -11.57327,-8.506 -13.65374,-17.59 -16.73487,-31.252 -0.96561,-4.118 -1.93122,-8.237 -2.92588,-12.48 -1.01468,-4.447 -2.03038,-8.893 -3.07612,-13.474 -13.07778,-54.958 -29.9629,-107.762 -47.7926,-161.431 -1.22404,70.928 -2.44908,141.854 -3.71018,214.932 -8.57528,0 -17.14956,0 -25.98327,0 -9.44774,-14.146 -8.44207,-25.528 -8.32587,-41.915 -0.008,-3.141 -0.015,-6.281 -0.021,-9.516 -0.0141,-10.389 0.0261,-20.778 0.0671,-31.166 0.004,-7.202 0.007,-14.407 0.005,-21.611 0.006,-15.095 0.0381,-30.192 0.0871,-45.289 0.0631,-19.394 0.0772,-38.79 0.0731,-58.184 0.002,-14.872 0.0222,-29.743 0.0481,-44.614 0.0129,-7.154 0.021,-14.31 0.0231,-21.462 0.007,-9.974 0.0401,-19.94602 0.0811,-29.92202 -0.002,-2.982 -0.004,-5.967 -0.006,-9.041 0.14323,-24.419 0.14323,-24.419 15.62502,-24.735 z"
     id="path2"
     style="stroke-width:1.00083" />
  <path
     class="a"
     d="m 28.90336,-243.956 c 0,47.69302 0,95.38502 0,144.52502 -26.9479,0 -53.89676,0 -81.66102,0 -0.68714,-26.74 0.31352,-52.859 3.01603,-79.443 0.25944,-2.849 0.52086,-5.697 0.78832,-8.632 1.79296,-16.314 4.27712,-28.371 14.75457,-41.62502 21.59598,-11.179 38.98692,-14.825 63.1021,-14.825 z"
     id="path3"
     style="stroke-width:1.00083" />
</svg>
