<?xml version="1.0" encoding="UTF-8" standalone="no"?>
<!-- <svg id="Layer_1" data-name="Layer 1" xmlns="http://www.w3.org/2000/svg" viewBox="0 0 214.21 214.34"> -->

<svg
   id="Layer_1"
   data-name="Layer 1"
   viewBox="-141 -121 1000 1000"
   version="1.1"
   sodipodi:docname="promo.svg"
   width="1000"
   height="1000"
   inkscape:version="1.4.2 (ebf0e940d0, 2025-05-08)"
   xmlns:inkscape="http://www.inkscape.org/namespaces/inkscape"
   xmlns:sodipodi="http://sodipodi.sourceforge.net/DTD/sodipodi-0.dtd"
   xmlns="http://www.w3.org/2000/svg"
   xmlns:svg="http://www.w3.org/2000/svg">
  <sodipodi:namedview
     id="namedview3"
     pagecolor="#ffffff"
     bordercolor="#000000"
     borderopacity="0.25"
     inkscape:showpageshadow="2"
     inkscape:pageopacity="0.0"
     inkscape:pagecheckerboard="0"
     inkscape:deskcolor="#d1d1d1"
     inkscape:zoom="0.60490065"
     inkscape:cx="287.65054"
     inkscape:cy="538.10489"
     inkscape:window-width="1604"
     inkscape:window-height="1392"
     inkscape:window-x="0"
     inkscape:window-y="0"
     inkscape:window-maximized="0"
     inkscape:current-layer="Layer_1" />
  <defs
     id="defs1">
    <style
       id="style1">
      .cls-1 {
        fill: #f5f6f1;
      }
      .cls-2 {
        fill: #204153;
      }
      .cls-3 {
        fill: #204153;
      }
    </style>
  </defs>
  <g
     id="g3">
    <g
       id="g4"
       transform="matrix(2.884485,0,0,2.8917022,122.27607,97.771893)">
      <path
         class="cls-2"
         d="m 23.415958,183.44102 c 3.54,-12.76 7.15,-25.4 12.809999,-37.41 5.6,-11.88 11.74,-23.41 19.55,-33.97 4.95,-6.69 10.02,-13.320004 15.45,-19.620004 8.17,-9.48 16.64,-18.72 25.11,-27.94 7.270003,-7.91 14.640003,-15.74 22.130003,-23.45 4.31999,-4.46 8.94999,-8.62 13.45999,-12.9 0.29,-0.28 0.71,-0.43 1.44,-0.39 -0.23,0.53 -0.37,1.14 -0.71,1.59 -5.87,7.8 -11.71999,15.61 -17.66999,23.35 -6.92,9.01 -13.91,17.96 -20.910003,26.91 -7.46,9.53 -14.88,19.1 -22.47,28.530004 -11.15,13.86 -20.97,28.54 -28.6,44.64 -0.9,1.9 -1.69,3.86 -2.6,5.76 -0.55,1.13 -0.25,1.59 0.92,2.02 5.75,2.11 11.62,2.83 17.74,2.35 4.74,-0.37 9.26,-1.44 13.66,-3.17 0.72,-0.29 1.4,-0.69 2.04,-1.02 -2.62,-2.85 -5.22,-5.47 -7.57,-8.3 -2.35,-2.82 -3.76,-6.17 -4.94,-10.04 0.93,0.3 1.57,0.45 2.16,0.7 6.33,2.78 12.98,4.18 19.83,4.79 5.19,0.46 9.92,-1.13 14.48,-3.32 5.190003,-2.49 9.510003,-6.1 13.050003,-10.64 0.41,-0.53 0.77,-1.09 1.39,-1.97 -10.51,-2.51 -19.480003,-7 -25.530003,-15.93 0.08,-0.21 0.17,-0.43 0.25,-0.64 0.73,0.11 1.47,0.18 2.19,0.32 8.73,1.78 17.530003,2.22 26.390003,1.24 2.4,-0.27 4.78,-0.67 7.18999,-0.9 4.12,-0.39 7.02,-2.77 9.71,-5.63 6.22,-6.61 9.86,-14.600004 12.44,-23.160004 0.75,-2.48 1.24,-5.03 1.86,-7.54 0.41,-1.66 -0.17,-2.22 -1.9,-2.1 -10.08,0.72 -19.95,-0.39 -29.55999,-3.6 -0.65,-0.22 -1.26,-0.58 -1.89,-0.87 0.02,-0.21 0.04,-0.41 0.06,-0.62 1.64,-0.18 3.28,-0.43 4.93,-0.54 10.55999,-0.69 20.52999,-3.33 29.69999,-8.77 1.52,-0.9 2.56,-1.97 3.05,-3.76 2.51,-9.32 3.01,-18.74 1.69,-28.28 -0.35,-2.51 -0.77,-5 -1.17,-7.53 33.77,29.7 47.38,87.270004 15.45,134.340004 -33.01,48.67 -97.689993,59.19 -144.609992,27.46 z"
         id="path2" />
      <path
         class="cls-3"
         d="m 135.21595,8.551016 c -8.45,1 -16.42999,2.63 -23.95999,5.83 -4.83,2.05 -9.42,4.65 -14.160003,6.93 -1.75,0.84 -2.31,2.44 -2.64,4.02 -1.01,4.85 -2.12,9.71 -2.65,14.63 -0.78,7.26 -1.1,14.57 -1.64,21.86 -0.04,0.51 -0.23,1.01 -0.81,1.64 -0.47,-0.82 -1.03,-1.59 -1.4,-2.45 -3.33,-7.63 -5.59,-15.59 -6.91,-23.81 -0.2,-1.22 -0.32,-2.45 -0.36,-3.68 -0.03,-1.15 -0.61,-1.47 -1.56,-1.13 -5.86,2.09 -11.16,5 -15.23,9.9 -2.18,2.62 -2.26,5.73 -2.43,8.79 -0.57,10.39 0.2,20.67 3.19,30.69 0.49,1.65 -0.44,2.18 -1.57,2.87 -1.19,0.72 -1.96,0.25 -2.73,-0.62 -5.39,-6.07 -8.76,-13.17 -10.76,-20.97 -0.48,-1.88 -1,-2.06 -2.45,-0.7 -10.27,9.71 -16.429999,21.6 -18.529999,35.53 -0.27,1.82 0.49,3.920004 1.15,5.750004 2.17,6.04 5.089999,11.71 9.039999,16.81 1.03,1.32 1.05,2.43 -0.37,3.65 -4.32,3.73 -4.92,3.91 -9.099999,0.05 -3.36,-3.11 -6.37,-6.61 -9.68,-10.08 -0.22,0.38 -0.67,0.94 -0.88,1.58 -3.9,12.34 -1.96,23.61 6.26,33.7 0.97,1.19 1.15,2.22 0.51,3.72 -3.24,7.55 -6.34,15.17 -9.51,22.76 -0.19,0.45 -0.49,0.85 -0.75,1.27 -40.090001,-32.94 -50.760001,-94.680004 -17.1700006,-140.580004 34.9599996,-47.77 96.5699996,-53.03 137.0999926,-27.96 z"
         id="path3" />
    </g>
  </g>
</svg>
