<?xml version="1.0" encoding="UTF-8" standalone="no"?>
<svg
   id="Layer_1"
   data-name="Layer 1"
   width="1000"
   height="1000"
   viewBox="0 0 750.0062 750.00619"
   version="1.1"
   sodipodi:docname="promoUS.svg"
   inkscape:version="1.4.2 (ebf0e940d0, 2025-05-08)"
   xmlns:inkscape="http://www.inkscape.org/namespaces/inkscape"
   xmlns:sodipodi="http://sodipodi.sourceforge.net/DTD/sodipodi-0.dtd"
   xmlns="http://www.w3.org/2000/svg"
   xmlns:svg="http://www.w3.org/2000/svg">
  <sodipodi:namedview
     id="namedview1"
     pagecolor="#ffffff"
     bordercolor="#000000"
     borderopacity="0.25"
     inkscape:showpageshadow="2"
     inkscape:pageopacity="0.0"
     inkscape:pagecheckerboard="0"
     inkscape:deskcolor="#d1d1d1"
     inkscape:document-units="mm"
     inkscape:zoom="0.63125192"
     inkscape:cx="454.65208"
     inkscape:cy="244.75173"
     inkscape:window-width="1266"
     inkscape:window-height="1392"
     inkscape:window-x="0"
     inkscape:window-y="0"
     inkscape:window-maximized="0"
     inkscape:current-layer="Layer_1" />
  <defs
     id="defs1">
    <style
       id="style1">
      .cls-1 {
        fill: #193963;
      }
    </style>
  </defs>
  <g
     id="g1"
     transform="matrix(2.0447279,0,0,2.0447279,219.52199,219.52199)">
    <polygon
       class="cls-1"
       points="139.82,55.32 100.4,83.95 115.46,130.29 76.04,101.65 36.62,130.29 51.68,83.95 12.26,55.32 60.98,55.32 76.04,8.98 91.1,55.32 "
       id="polygon1" />
    <path
       class="cls-1"
       d="m 76.04,9 c 37.02,0 67.04,30.01 67.04,67.04 0,37.03 -30.01,67.04 -67.04,67.04 C 39.01,143.08 9,113.06 9,76.04 9,39.02 39.01,9 76.04,9 m 0,-43 C 46.65,-34 19.01,-22.55 -1.77,-1.77 -22.55,19.01 -34,46.65 -34,76.04 c 0,29.39 11.45,57.03 32.23,77.81 20.78,20.78 48.42,32.23 77.81,32.23 29.39,0 57.03,-11.45 77.81,-32.23 20.78,-20.78 32.23,-48.42 32.23,-77.81 0,-29.39 -11.45,-57.03 -32.23,-77.81 C 133.07,-22.55 105.43,-34 76.04,-34 Z"
       id="path1" />
  </g>
</svg>
