<?xml version="1.0" encoding="UTF-8" standalone="no"?>
<svg
   id="Layer_1"
   data-name="Layer 1"
   width="1000"
   height="1000"
   viewBox="0 0 749.99701 749.98547"
   version="1.1"
   sodipodi:docname="promoCA.svg"
   inkscape:version="1.4.2 (ebf0e940d0, 2025-05-08)"
   xmlns:inkscape="http://www.inkscape.org/namespaces/inkscape"
   xmlns:sodipodi="http://sodipodi.sourceforge.net/DTD/sodipodi-0.dtd"
   xmlns="http://www.w3.org/2000/svg"
   xmlns:svg="http://www.w3.org/2000/svg">
  <sodipodi:namedview
     id="namedview1"
     pagecolor="#ffffff"
     bordercolor="#000000"
     borderopacity="0.25"
     inkscape:showpageshadow="2"
     inkscape:pageopacity="0.0"
     inkscape:pagecheckerboard="0"
     inkscape:deskcolor="#d1d1d1"
     inkscape:document-units="px"
     inkscape:zoom="0.59075779"
     inkscape:cx="433.34173"
     inkscape:cy="432.49536"
     inkscape:window-width="2560"
     inkscape:window-height="1440"
     inkscape:window-x="0"
     inkscape:window-y="0"
     inkscape:window-maximized="0"
     inkscape:current-layer="Layer_1" />
  <defs
     id="defs1">
    <style
       id="style1">
      .cls-1 {
        fill: #cc3428;
      }
    </style>
  </defs>
  <path
     class="cls-1"
     d="m 364.10855,599.99184 5.44498,-96.36193 c 0.29249,-5.84997 -4.61249,-10.8138 -10.94996,-11.0838 -0.825,-0.0346 -1.65749,0.0138 -2.47499,0.14538 l -103.91209,16.85763 14.03245,-35.72986 c 1.16999,-2.9146 0.195,-6.1892 -2.42249,-8.14843 L 149.9994,380.57271 175.6418,369.5166 c 3.58498,-1.56461 5.34748,-5.34459 4.10998,-8.81996 l -22.49991,-63.87206 65.56474,12.84226 c 3.65999,0.70615 7.35747,-1.07307 8.82746,-4.24383 l 12.70495,-27.58143 51.1723,50.69749 c 2.98499,2.90768 7.96497,3.0323 11.11496,0.27692 1.94999,-1.70307 2.81998,-4.20921 2.30999,-6.6392 l -24.6749,-117.4703 39.55484,21.10145 c 3.74998,2.02846 8.56496,0.86538 10.76245,-2.58922 0.09,-0.13846 0.1725,-0.27692 0.2475,-0.4223 l 40.16234,-72.80279 40.16234,72.80279 c 1.9425,3.58614 6.66748,5.03998 10.55246,3.24691 0.1575,-0.0692 0.3075,-0.14539 0.4575,-0.22846 l 39.55484,-21.10146 -24.6749,117.4703 c -0.8175,3.93922 1.97249,7.73997 6.23248,8.50151 2.63249,0.47076 5.34747,-0.33923 7.19247,-2.1323 l 51.17229,-50.69749 12.70495,27.58143 c 1.4775,3.17075 5.16748,4.94998 8.82747,4.24383 l 65.56474,-12.84226 -22.49991,63.87205 c -1.23,3.47537 0.53249,7.25536 4.10998,8.81997 l 25.6424,11.05611 -113.82705,85.08427 c -2.61749,1.95923 -3.58499,5.23383 -2.42249,8.14843 l 14.03244,35.72986 -103.91208,-16.85763 c -6.25498,-0.98999 -12.19495,2.87999 -13.27495,8.65382 -0.1425,0.75461 -0.195,1.52307 -0.1575,2.2846 l 5.44498,96.36193 z"
     id="path1"
     style="stroke-width:0.720574" />
</svg>
