<?xml version="1.0" encoding="UTF-8" standalone="no"?>
<svg
   id="Layer_1"
   data-name="Layer 1"
   width="1000"
   height="1000"
   viewBox="0 0 749.97349 749.97349"
   version="1.1"
   sodipodi:docname="promoAsia.svg"
   inkscape:version="1.4.2 (ebf0e940d0, 2025-05-08)"
   xmlns:inkscape="http://www.inkscape.org/namespaces/inkscape"
   xmlns:sodipodi="http://sodipodi.sourceforge.net/DTD/sodipodi-0.dtd"
   xmlns="http://www.w3.org/2000/svg"
   xmlns:svg="http://www.w3.org/2000/svg">
  <sodipodi:namedview
     id="namedview8"
     pagecolor="#ffffff"
     bordercolor="#000000"
     borderopacity="0.25"
     inkscape:showpageshadow="2"
     inkscape:pageopacity="0.0"
     inkscape:pagecheckerboard="0"
     inkscape:deskcolor="#d1d1d1"
     inkscape:document-units="px"
     inkscape:zoom="0.38484849"
     inkscape:cx="-384.56693"
     inkscape:cy="3.8976378"
     inkscape:window-width="2560"
     inkscape:window-height="1440"
     inkscape:window-x="0"
     inkscape:window-y="0"
     inkscape:window-maximized="0"
     inkscape:current-layer="Layer_1" />
  <defs
     id="defs1">
    <style
       id="style1">
      .cls-1 {
        fill: #b51227;
      }
    </style>
  </defs>
  <path
     class="cls-1"
     d="m 348.07157,340.71138 c -0.14432,1.80397 -2.4534,2.45339 -3.39146,0.93806 -14.50389,-23.3794 -22.58566,-49.71731 -22.58566,-77.78703 0,-43.43951 19.555,-83.05461 51.95424,-113.36125 0.79374,-0.72159 2.02044,-0.64943 2.66987,0.0722 19.26636,20.20442 34.34752,42.57361 45.17132,65.88085 0.36079,0.79375 0.0722,1.80397 -0.64943,2.30908 -42.35713,29.72936 -70.13822,73.16888 -73.16888,121.94813 z"
     id="path1"
     style="stroke-width:7.21588" />
  <path
     class="cls-1"
     d="m 380.18217,331.69155 c -1.37101,1.22669 -3.46361,0 -3.10282,-1.73181 6.2778,-26.77086 19.1942,-51.16049 39.03783,-70.93196 30.73959,-30.73959 72.59161,-44.88268 116.89703,-43.43951 1.01022,0 1.87612,0.93806 1.87612,1.94828 -0.64942,27.85324 -5.84485,54.33547 -14.6482,78.50862 -0.28864,0.8659 -1.15454,1.29886 -2.0926,1.15454 -51.01618,-8.94768 -101.31076,2.16476 -137.96736,34.49184 z"
     id="path2"
     style="stroke-width:7.21588" />
  <path
     class="cls-1"
     d="m 409.26211,348.07156 c -1.80397,-0.14432 -2.45339,-2.45339 -0.93806,-3.39145 23.3794,-14.50389 49.71731,-22.58566 77.78703,-22.58566 43.43951,0 83.05462,19.55499 113.36125,51.95423 0.72159,0.79374 0.64943,2.02044 -0.0722,2.66987 -20.20442,19.26636 -42.5736,34.34752 -65.88085,45.17132 -0.79375,0.36079 -1.80397,0.0722 -2.30908,-0.64943 -29.72936,-42.35713 -73.16888,-70.13821 -121.94813,-73.16888 z"
     id="path3"
     style="stroke-width:7.21588" />
  <path
     class="cls-1"
     d="m 418.28194,380.18217 c -1.22669,-1.37102 0,-3.46362 1.73181,-3.10283 26.77086,6.27781 51.16049,19.19421 70.93196,39.03784 30.73959,30.73959 44.88269,72.59161 43.43951,116.89702 0,1.01022 -0.93806,1.87613 -1.94828,1.87613 -27.85324,-0.64943 -54.33547,-5.84485 -78.50862,-14.64821 -0.8659,-0.28863 -1.29886,-1.15454 -1.15454,-2.0926 8.94767,-51.01617 -2.16476,-101.31076 -34.49184,-137.96735 z"
     id="path4"
     style="stroke-width:7.21588" />
  <path
     class="cls-1"
     d="m 401.90193,409.2621 c 0.14431,-1.80396 2.45339,-2.45339 3.39145,-0.93806 14.50389,23.37941 22.58566,49.71732 22.58566,77.78704 0,43.43951 -19.55499,83.05461 -51.95423,113.36125 -0.79374,0.72158 -2.02044,0.64943 -2.66987,-0.0722 -19.26636,-20.20443 -34.34752,-42.57361 -45.17132,-65.88086 -0.36079,-0.79374 -0.0722,-1.80396 0.64943,-2.30907 42.35713,-29.72937 70.13821,-73.16888 73.16888,-121.94814 z"
     id="path5"
     style="stroke-width:7.21588" />
  <path
     class="cls-1"
     d="m 369.79132,418.28194 c 1.37102,-1.2267 3.46362,0 3.10283,1.7318 -6.27781,26.77087 -19.19421,51.16049 -39.03784,70.93197 -30.73959,30.73958 -72.59161,44.88268 -116.89702,43.43951 -1.01022,0 -1.87613,-0.93806 -1.87613,-1.94829 0.64943,-27.85324 5.84485,-54.33547 14.64821,-78.50862 0.28863,-0.8659 1.15454,-1.29885 2.0926,-1.15453 51.01617,8.94767 101.31076,-2.16476 137.96735,-34.49184 z"
     id="path6"
     style="stroke-width:7.21588" />
  <path
     class="cls-1"
     d="m 340.71139,401.90192 c 1.80396,0.14432 2.45339,2.4534 0.93806,3.39146 -23.37941,14.50389 -49.71732,22.58566 -77.78704,22.58566 -43.43951,0 -83.05461,-19.555 -113.36125,-51.95424 -0.72159,-0.79374 -0.64943,-2.02044 0.0722,-2.66987 20.20442,-19.26636 42.57361,-34.34752 65.88086,-45.17132 0.79374,-0.36079 1.80396,-0.0721 2.30907,0.64943 29.72937,42.35713 73.16888,70.13822 121.94814,73.16888 z"
     id="path7"
     style="stroke-width:7.21588" />
  <path
     class="cls-1"
     d="m 331.69155,369.79132 c 1.2267,1.37101 0,3.46361 -1.7318,3.10282 -26.77087,-6.2778 -51.16049,-19.1942 -70.93197,-39.03783 -30.73958,-30.73959 -44.88268,-72.59161 -43.43951,-116.89703 0,-1.01022 0.93806,-1.87612 1.94829,-1.87612 27.85324,0.64943 54.33547,5.84485 78.50862,14.64821 0.8659,0.28863 1.29885,1.15453 1.15453,2.09259 -8.94767,51.01618 2.16476,101.31076 34.49184,137.96736 z"
     id="path8"
     style="stroke-width:7.21588" />
</svg>
